<?xml version="1.0" encoding="UTF-8" standalone="no"?>
<!-- Created with Inkscape (http://www.inkscape.org/) -->

<svg
   width="500"
   height="500"
   viewBox="0 0 132.29166 132.29167"
   version="1.1"
   id="svg1"
   sodipodi:docname="image.svg"
   inkscape:version="1.4 (e7c3feb100, 2024-10-09)"
   xmlns:inkscape="http://www.inkscape.org/namespaces/inkscape"
   xmlns:sodipodi="http://sodipodi.sourceforge.net/DTD/sodipodi-0.dtd"
   xmlns="http://www.w3.org/2000/svg"
   xmlns:svg="http://www.w3.org/2000/svg">
  <sodipodi:namedview
     id="namedview1"
     pagecolor="#505050"
     bordercolor="#eeeeee"
     borderopacity="1"
     inkscape:showpageshadow="0"
     inkscape:pageopacity="0"
     inkscape:pagecheckerboard="0"
     inkscape:deskcolor="#505050"
     inkscape:zoom="0.584"
     inkscape:cx="294.52055"
     inkscape:cy="679.79452"
     inkscape:window-width="1269"
     inkscape:window-height="1586"
     inkscape:window-x="1282"
     inkscape:window-y="5"
     inkscape:window-maximized="1"
     inkscape:current-layer="svg1" />
  <defs
     id="defs1" />
  <g
     id="layer1"
     style="fill:#ffffff">
    <path
       style="fill:#ffffff;stroke-width:0.740391;fill-opacity:1"
       d="m 88.684885,126.59865 c -2.137894,-1.19951 -3.887073,-2.4808 -3.887073,-2.84732 0,-1.28972 8.970824,-8.12431 10.663645,-8.12431 2.734047,0 6.533943,-1.50685 9.373733,-3.71723 1.77648,-1.38269 3.2275,-1.94216 4.44236,-1.71277 2.26871,0.42838 7.063,-4.12075 10.63314,-10.08936 3.24202,-5.42014 3.77588,-7.840274 2.24487,-10.176893 -0.94334,-1.439727 -1.68541,-1.777206 -3.36555,-1.53062 -2.12183,0.311423 -2.15536,0.261702 -2.15536,-3.196829 0,-1.932243 -0.2026,-4.041366 -0.45042,-4.686949 -0.48491,-1.263672 -5.7967,-2.994519 -11.7629,-3.832961 -2.37341,-0.333538 -4.628589,-1.265327 -6.293343,-2.600262 -8.17406,-6.554558 -21.908171,-5.998858 -28.854046,1.16748 l -2.391922,2.467827 -3.974589,-2.784199 c -5.050414,-3.537825 -9.296817,-4.716713 -15.688792,-4.355536 -3.762095,0.21256 -6.313023,0.885856 -9.847836,2.599186 -3.255663,1.578031 -7.591881,2.796764 -13.655241,3.837933 -10.347513,1.776834 -11.47606,2.585022 -11.47606,8.218341 0,3.026783 -0.253696,3.616678 -1.872613,4.354305 -3.4597894,1.576391 -3.8060629,5.824872 -0.9622512,11.806147 1.7495532,3.67976 5.6499992,6.93678 8.4919032,7.09106 1.090299,0.0591 2.920137,0.98275 4.066303,2.05234 1.146168,1.06961 3.508711,2.65871 5.250088,3.53133 l 3.16615,1.5866 -7.426746,-0.21923 c -6.54378,-0.19313 -7.839816,-0.46129 -10.901086,-2.25531 -6.0885114,-3.56811 -9.1313316,-11.39762 -8.5906469,-22.104676 0.2293782,-4.542472 0.655178,-6.134199 2.3097142,-8.634384 2.23408,-3.375922 6.6915687,-6.056059 10.0721637,-6.056059 2.070719,0 2.207904,-0.196861 2.708587,-3.887054 1.205142,-8.882317 5.821671,-16.260949 12.693501,-20.288116 L 34.554984,50.2711 31.952835,47.595394 c -3.859578,-3.968689 -7.115428,-11.50901 -7.632463,-17.676261 -0.431314,-5.144645 1.392336,-16.466075 2.65234,-16.466075 0.310632,0 1.032045,0.873101 1.603155,1.940224 1.324424,2.474718 6.243199,6.802672 10.334269,9.092974 l 3.176513,1.778314 -0.513093,-1.778314 c -0.282201,-0.97807 -0.714078,-3.527482 -0.959723,-5.665364 -0.503266,-4.379918 0.509633,-5.219768 1.988712,-1.648948 1.08494,2.619278 7.648387,9.421059 10.847034,11.240914 l 2.219136,1.262561 -0.34757,-4.191214 -0.347569,-4.191216 4.333414,3.862312 c 4.958733,4.419646 11.366838,7.792005 22.630761,11.909761 15.216387,5.562677 24.632129,12.646969 29.263219,22.017359 2.43551,4.927886 2.77452,6.299099 2.95962,11.970295 l 0.20903,6.404881 2.79838,0.235115 c 4.11982,0.346149 6.61168,1.53503 9.0586,4.321913 2.67033,3.041359 3.3117,6.160254 2.8005,13.618555 -0.6595,9.622 -4.67396,16.18095 -11.77285,19.23479 -3.1543,1.35693 -4.88604,1.60306 -9.77441,1.38917 l -5.94095,-0.25993 -3.947849,6.29332 c -2.171334,3.46133 -4.188902,6.33736 -4.483509,6.39117 -0.294609,0.0538 -2.284807,-0.88354 -4.422675,-2.08307 z m -55.063719,-4.63254 c -0.852583,-2.87566 -1.723565,-5.51549 -1.93551,-5.86628 -0.212674,-0.35197 1.399036,-0.39237 3.596384,-0.0902 3.376999,0.46445 4.600198,1.11015 8.053884,4.25154 2.239683,2.03713 4.163537,3.93446 4.275233,4.21628 0.111683,0.2818 -2.641575,1.00845 -6.118379,1.61475 l -6.321455,1.10237 z m -1.879588,-8.48162 c -6.766509,-1.74885 -11.270847,-6.8739 -13.185291,-15.002267 -0.704319,-2.990402 -1.913964,-6.339854 -2.688093,-7.443201 -1.631081,-2.324722 -1.944698,-8.854617 -0.482031,-10.03643 1.360334,-1.09914 17.971718,-3.87588 23.186767,-3.87588 5.924004,0 12.495506,1.2572 15.783767,3.019603 3.820901,2.047879 16.339847,2.047879 20.160755,0 3.304966,-1.771369 9.866683,-3.019603 15.873379,-3.019603 4.213219,0 20.182169,2.386649 22.869909,3.418037 1.56771,0.601591 1.60873,8.177959 0.0535,9.896403 -0.60455,0.668015 -1.71873,3.692827 -2.47596,6.72181 -2.15224,8.609038 -4.55483,12.093148 -10.49231,15.215358 -3.974629,2.09006 -15.569054,1.9334 -19.733834,-0.26663 -5.783669,-3.05523 -8.076145,-7.09333 -11.368302,-20.024955 -0.900437,-3.536933 -3.103227,-5.089725 -6.139272,-4.327729 -2.008328,0.504057 -2.815679,2.133347 -4.620959,9.325445 -2.034802,8.106479 -4.834206,12.189829 -10.274547,14.986999 -3.213343,1.65215 -12.469378,2.44639 -16.467529,1.41305 z m 10.33597,-16.353042 c 4.764261,-6.507628 8.662289,-12.005035 8.662289,-12.216444 0,-0.211414 -0.473421,-0.384383 -1.052052,-0.384383 -1.00095,0 -20.896184,22.033499 -20.323039,22.507289 0.590972,0.48852 3.258141,1.88184 3.643012,1.9031 0.224118,0.0119 4.305531,-5.30192 9.06979,-11.809562 z m 51.937371,-0.711005 c 7.260271,-9.900308 8.427781,-11.969412 6.782391,-12.020019 -0.69345,-0.02125 -19.701435,21.536886 -19.701435,22.344676 0,0.28125 0.749644,0.85998 1.665872,1.28608 2.11467,0.98343 1.714928,1.39586 11.253172,-11.610737 z M 32.530221,83.186293 c -1.773896,-0.422259 -6.266819,2.242424 -7.366492,4.368966 -0.592883,1.146512 -1.077971,3.847251 -1.077971,6.001653 v 3.917082 l 4.713195,-7.02698 c 3.088482,-4.604656 4.374712,-7.107555 3.731268,-7.260721 z m 48.515648,6.057125 4.564297,-7.133459 -2.442242,0.478492 c -2.983576,0.584545 -5.835326,2.594492 -7.058782,4.975107 -1.048087,2.039386 -1.264818,8.813326 -0.281989,8.813326 0.359921,0 2.708335,-3.210063 5.218716,-7.133466 z M 59.307218,108.54044 c -0.639913,-0.6399 -1.163472,-1.4833 -1.163472,-1.8742 0,-1.31569 2.325793,-1.61737 3.49042,-0.45274 1.164628,1.16463 0.862955,3.49041 -0.452737,3.49041 -0.390904,0 -1.234304,-0.52354 -1.874211,-1.16347 z m 7.966934,-0.004 c -0.246504,-0.64239 0.07129,-1.68747 0.706213,-2.32241 1.16463,-1.16463 3.490405,-0.86296 3.490405,0.45273 0,0.39091 -0.523543,1.2343 -1.163455,1.87421 -1.478756,1.47876 -2.464535,1.47728 -3.033163,-0.004 z"
       id="path1" />
  </g>
</svg>
